# xmcd
#
# Track frame offsets:
#	150
#	11405
#	23310
#	37550
#	49085
#	71312
#	83232
#	97930
#	111122
#	126782
#	139690
#	157095
#	167772
#	183552
#	199080
#	212392
#	223657
#	238547
#	253777
#	263037
#
# Disc length: 3781 seconds
#
# Revision: 1
# Processed by: cddbd v1.5.1PL2 Copyright (c) Steve Scherf et al.
# Submitted via: audiograbber 1.83.01
#
DISCID=010ec314
DTITLE=Elvis Presley - Too Hot To Handle
DYEAR=1900
DGENRE=
TTITLE0=Tomorrow Night
TTITLE1=Power Of My Love
TTITLE2=Any Day Now
TTITLE3=Mama Liked The Roses
TTITLE4=Hey Jude
TTITLE5=Do You Know Who I am?
TTITLE6=Gentle On My Mind
TTITLE7=Don't Cry Daddy
TTITLE8=Who Am I
TTITLE9=My Little Friend
TTITLE10=You'll Think Of Me
TTITLE11=True Love Travels (On A Gravel Road)
TTITLE12=Suspicious Minds
TTITLE13=Kentucky Rain
TTITLE14=Separate Ways
TTITLE15=Spanish Eyes
TTITLE16=Reach Out To Jesus
TTITLE17=Steamroller Blues
TTITLE18=Promised Land
TTITLE19=Bridge Over Troubled Water
EXTD=
EXTT0=
EXTT1=
EXTT2=
EXTT3=
EXTT4=
EXTT5=
EXTT6=
EXTT7=
EXTT8=
EXTT9=
EXTT10=
EXTT11=
EXTT12=
EXTT13=
EXTT14=
EXTT15=
EXTT16=
EXTT17=
EXTT18=
EXTT19=
PLAYORDER=
